# xmcd
#
# Track frame offsets:
#	150
#	16522
#	33202
#	51328
#	74216
#	95948
#	119776
#	138281
#	159274
#	174904
#	193657
#	210708
#
# Disc length: 3126 seconds
#
# Revision: 0
# Processed by: cddbd v1.5.1PL2 Copyright (c) Steve Scherf et al.
# Submitted via: dBpowerAMP V4.0
#
DISCID=ab0c340c
DTITLE=Charlie Wilson - Charlie, Last Name Wilson
DYEAR=1900
DGENRE=R and B
TTITLE0=Magic
TTITLE1=Charlie, Last Name Wilson
TTITLE2=So Hot
TTITLE3=Let's Chill
TTITLE4=No Words
TTITLE5=Floatin'
TTITLE6=Asking Questions
TTITLE7=What If I'm The One
TTITLE8=You Got Nerve
TTITLE9=Thru It All
TTITLE10=My Guarantee
TTITLE11=Cry No More
EXTD=
EXTT0=
EXTT1=
EXTT2=
EXTT3=
EXTT4=
EXTT5=
EXTT6=
EXTT7=
EXTT8=
EXTT9=
EXTT10=
EXTT11=
PLAYORDER=
